<svg width="45" height="42" viewBox="0 0 45 42" fill="none" xmlns="http://www.w3.org/2000/svg">
<path d="M43.9569 0L24.6479 14.2238L28.2386 5.84133L43.9569 0Z" fill="#E17726"/>
<path d="M1.08827 0.0167999L16.7646 5.84237L20.1741 14.3348L1.08827 0.0167999ZM36.1863 30.2502L44.7207 30.4118L41.738 40.4992L31.3242 37.6448L36.1863 30.2502ZM8.8135 30.2502L13.6575 37.6448L3.26127 40.4994L0.296722 30.4118L8.8135 30.2502Z" fill="#E27625"/>
<path d="M19.7105 12.1716L20.0593 23.3861L9.62296 22.9135L12.5915 18.4548L12.6292 18.4119L19.7105 12.1716ZM25.1814 12.0465L32.3708 18.4123L32.4081 18.455L35.3767 22.9136L24.9426 23.3861L25.1814 12.0465ZM13.9632 30.2827L19.6616 34.703L13.0421 37.8847L13.9632 30.2827ZM31.0379 30.282L31.9398 37.8849L25.3387 34.7027L31.0379 30.282Z" fill="#E27625"/>
<path d="M25.4844 34.2863L32.1829 37.5154L25.952 40.4635L26.0167 38.515L25.4844 34.2863ZM19.5136 34.2877L19.0023 38.4832L19.0443 40.4612L12.7988 37.5154L19.5136 34.2877Z" fill="#D5BFB2"/>
<path d="M17.5794 24.8498L19.3298 28.5122L13.3703 26.7741L17.5794 24.8498ZM27.4205 24.8502L31.6494 26.7741L25.6704 28.5117L27.4205 24.8502Z" fill="#233447"/>
<path d="M14.4186 30.2453L13.4553 38.1273L8.29211 30.4176L14.4186 30.2453ZM30.5817 30.2454L36.7084 30.4176L31.5258 38.1276L30.5817 30.2454ZM35.5275 22.4677L31.0688 26.9917L27.631 25.4277L25.9852 28.8724L24.9063 22.9488L35.5275 22.4677ZM9.4702 22.4677L20.0935 22.9488L19.0144 28.8724L17.3682 25.4282L13.9488 26.9918L9.4702 22.4677Z" fill="#CC6228"/>
<path d="M9.1698 21.5393L14.2144 26.6355L14.3891 31.6666L9.1698 21.5393ZM35.8353 21.5302L30.6065 31.6755L30.8034 26.6355L35.8353 21.5302ZM19.8469 21.8498L20.05 23.122L20.5516 26.2915L20.2291 36.0258L18.7042 28.206L18.7036 28.1251L19.8469 21.8498ZM25.1504 21.8321L26.2967 28.1251L26.2962 28.206L24.7674 36.0454L24.7069 34.0846L24.4684 26.2337L25.1504 21.8321Z" fill="#E27525"/>
<path d="M31.2518 26.433L31.0811 30.8042L25.7595 34.9319L24.6837 34.1752L25.8896 27.9916L31.2518 26.433ZM13.7667 26.433L19.1102 27.9916L20.3161 34.1752L19.2403 34.9319L13.9185 30.8038L13.7667 26.433Z" fill="#F5841F"/>
<path d="M11.7805 36.5502L18.5889 39.7618L18.56 38.3903L19.1298 37.8924H25.8682L26.4584 38.3885L26.4148 39.759L33.1801 36.5582L29.8881 39.2665L25.9075 41.9883H19.0751L15.0972 39.2553L11.7805 36.5502Z" fill="#C0AC9D"/>
<path d="M24.9968 33.8588L25.9594 34.5359L26.5235 39.0166L25.7071 38.3304H19.2953L18.4945 39.0304L19.0401 34.5363L20.003 33.8588H24.9968Z" fill="#161616"/>
<path d="M42.6821 0.393753L45 7.31623L43.5524 14.3157L44.5832 15.1072L43.1884 16.1667L44.2368 16.9727L42.8486 18.2312L43.7008 18.8456L41.4392 21.4751L32.1632 18.7863L32.0829 18.7434L25.3985 13.1297L42.6821 0.393753ZM2.31785 0.393753L19.6017 13.1297L12.9171 18.7434L12.8368 18.7863L3.5608 21.4751L1.2992 18.8456L2.15068 18.2317L0.763418 16.9727L1.80967 16.1676L0.393926 15.1051L1.46355 14.3131L0 7.31658L2.31785 0.393753Z" fill="#763E1A"/>
<path d="M31.7095 18.1983L41.538 21.0471L44.7311 30.8446H36.3069L30.5026 30.9174L34.7238 22.726L31.7095 18.1983ZM13.2905 18.1983L10.2757 22.726L14.4974 30.9174L8.69574 30.8446H0.286713L3.46185 21.0473L13.2905 18.1983ZM28.7199 5.7946L25.9708 13.1864L25.3874 23.1719L25.1642 26.3018L25.1464 34.2972H19.8535L19.8362 26.3169L19.6123 23.1693L19.0287 13.1864L16.28 5.7946H28.7199Z" fill="#F5841F"/>
</svg>
