<svg width="42" height="42" viewBox="0 0 42 42" fill="none" xmlns="http://www.w3.org/2000/svg">
<path d="M39.3488 16.2787C38.6419 15.54 37.9106 14.7788 37.635 14.1094C37.38 13.4963 37.365 12.48 37.35 11.4956C37.3219 9.66562 37.2919 7.59188 35.85 6.15C34.4081 4.70812 32.3344 4.67812 30.5044 4.65C29.52 4.635 28.5037 4.62 27.8906 4.365C27.2231 4.08937 26.46 3.35812 25.7212 2.65125C24.4275 1.40812 22.9575 0 21 0C19.0425 0 17.5744 1.40812 16.2787 2.65125C15.54 3.35812 14.7788 4.08937 14.1094 4.365C13.5 4.62 12.48 4.635 11.4956 4.65C9.66562 4.67812 7.59188 4.70812 6.15 6.15C4.70812 7.59188 4.6875 9.66562 4.65 11.4956C4.635 12.48 4.62 13.4963 4.365 14.1094C4.08937 14.7769 3.35812 15.54 2.65125 16.2787C1.40812 17.5725 0 19.0425 0 21C0 22.9575 1.40812 24.4256 2.65125 25.7212C3.35812 26.46 4.08937 27.2213 4.365 27.8906C4.62 28.5037 4.635 29.52 4.65 30.5044C4.67812 32.3344 4.70812 34.4081 6.15 35.85C7.59188 37.2919 9.66562 37.3219 11.4956 37.35C12.48 37.365 13.4963 37.38 14.1094 37.635C14.7769 37.9106 15.54 38.6419 16.2787 39.3488C17.5725 40.5919 19.0425 42 21 42C22.9575 42 24.4256 40.5919 25.7212 39.3488C26.46 38.6419 27.2213 37.9106 27.8906 37.635C28.5037 37.38 29.52 37.365 30.5044 37.35C32.3344 37.3219 34.4081 37.2919 35.85 35.85C37.2919 34.4081 37.3219 32.3344 37.35 30.5044C37.365 29.52 37.38 28.5037 37.635 27.8906C37.9106 27.2231 38.6419 26.46 39.3488 25.7212C40.5919 24.4275 42 22.9575 42 21C42 19.0425 40.5919 17.5744 39.3488 16.2787ZM21 33C20.555 33 20.12 32.868 19.75 32.6208C19.38 32.3736 19.0916 32.0222 18.9213 31.611C18.751 31.1999 18.7064 30.7475 18.7932 30.311C18.88 29.8746 19.0943 29.4737 19.409 29.159C19.7237 28.8443 20.1246 28.63 20.561 28.5432C20.9975 28.4564 21.4499 28.501 21.861 28.6713C22.2722 28.8416 22.6236 29.13 22.8708 29.5C23.118 29.87 23.25 30.305 23.25 30.75C23.25 31.3467 23.0129 31.919 22.591 32.341C22.169 32.7629 21.5967 33 21 33ZM22.5 23.865V24C22.5 24.3978 22.342 24.7794 22.0607 25.0607C21.7794 25.342 21.3978 25.5 21 25.5C20.6022 25.5 20.2206 25.342 19.9393 25.0607C19.658 24.7794 19.5 24.3978 19.5 24V22.5C19.5 22.1022 19.658 21.7206 19.9393 21.4393C20.2206 21.158 20.6022 21 21 21C23.4806 21 25.5 19.3125 25.5 17.25C25.5 15.1875 23.4806 13.5 21 13.5C18.5194 13.5 16.5 15.1875 16.5 17.25V18C16.5 18.3978 16.342 18.7794 16.0607 19.0607C15.7794 19.342 15.3978 19.5 15 19.5C14.6022 19.5 14.2206 19.342 13.9393 19.0607C13.658 18.7794 13.5 18.3978 13.5 18V17.25C13.5 13.5281 16.8638 10.5 21 10.5C25.1362 10.5 28.5 13.5281 28.5 17.25C28.5 20.5087 25.92 23.2369 22.5 23.865Z" fill="#FFD233"/>
</svg>
